# xmcd CD database file
#
# Track frame offsets:
#	150
#	14690
#	32119
#	47196
#	62846
#	77093
#	93807
#	111032
#	125679
#	143686
#	159508
#	172162
#	186702
#	204131
#	219208
#	234858
#	249105
#	265819
#	283044
#	297691
#	315698
#	331520
#
# Disc length: 4586 seconds
#
# Revision: 0
# Processed by: cddbd v1.4PL0 Copyright (c) Steve Scherf et al.
# Submitted via: CDex 1.50
#
DISCID=3d11e816
DTITLE=Dimond Rio - Four ~Zetroc Tunes Edition~
DYEAR=2003
DGENRE=Country
TTITLE0=Holdin'
TTITLE1=Walkin Away
TTITLE2=That's What I Get For Loving You
TTITLE3=She Misses Him On Sunday The Most
TTITLE4=She Sure Did Like To Run
TTITLE5=It's All In Your Head
TTITLE6=Who Am I 
TTITLE7=Love Takes You There
TTITLE8=Is That Askin Too Much
TTITLE9=Just Another Heart
TTITLE10=Big (Instrumental)
TTITLE11=Holdin'
TTITLE12=Walkin Away
TTITLE13=That's What I Get For Loving You
TTITLE14=She Misses Him On Sunday The Most
TTITLE15=She Sure Did Like To Run
TTITLE16=It's All In Your Head
TTITLE17=Who Am I 
TTITLE18=Love Takes You There
TTITLE19=Is That Askin Too Much
TTITLE20=Just Another Heart
TTITLE21=Big (Instrumental)
EXTD=YEAR: 2003
EXTT0=
EXTT1=
EXTT2=
EXTT3=
EXTT4=
EXTT5=
EXTT6=
EXTT7=
EXTT8=
EXTT9=
EXTT10=
EXTT11=
EXTT12=
EXTT13=
EXTT14=
EXTT15=
EXTT16=
EXTT17=
EXTT18=
EXTT19=
EXTT20=
EXTT21=
PLAYORDER=
